<svg width="149" height="119" viewBox="0 0 149 119" fill="none" xmlns="http://www.w3.org/2000/svg">
<rect width="149" height="119" rx="16" fill="#FF7648"/>
<mask id="mask0_3_584" style="mask-type:alpha" maskUnits="userSpaceOnUse" x="0" y="0" width="149" height="119">
<rect width="149" height="119" rx="16" fill="#FF7648"/>
</mask>
<g mask="url(#mask0_3_584)">
</g>
<mask id="mask1_3_584" style="mask-type:alpha" maskUnits="userSpaceOnUse" x="0" y="0" width="149" height="119">
<rect width="149" height="119" rx="16" fill="#FF7648"/>
</mask>
<g mask="url(#mask1_3_584)">
<path fill-rule="evenodd" clip-rule="evenodd" d="M144.144 -82.4032C159.404 -83.5438 178.242 -91.1142 188.869 -80.1032C199.871 -68.7034 189.661 -49.5693 191.064 -33.788C192.043 -22.7626 196.963 -12.7579 195.832 -1.74693C194.445 11.7609 192.631 25.7694 183.88 36.1529C173.722 48.2073 159.81 57.8423 144.144 59.5901C127.593 61.4365 109.65 57.0809 97.3977 45.8013C85.6392 34.976 85.3535 17.3308 81.4156 1.84035C77.7822 -12.4526 71.1334 -26.7636 75.3592 -40.8928C79.6294 -55.1708 91.2675 -66.0616 104.027 -73.7615C116.032 -81.0067 130.161 -81.358 144.144 -82.4032Z" fill="#FFC278"/>
</g>
</svg>
