<svg width="299" height="299" viewBox="0 0 299 299" fill="none" xmlns="http://www.w3.org/2000/svg">
<path d="M196.63 183.06C196.63 178.36 193.53 174.36 192.13 169.86C180.63 130.76 163.03 156.56 165.33 133.96C167.23 115.56 140.83 106.66 138.63 114.66C136.93 121.06 128.53 124.56 124.53 119.16C119.43 112.36 121.43 102.66 116.93 95.5598C114.33 91.4598 109.43 88.5598 104.33 88.1598C99.7299 87.7598 94.9299 89.1598 90.4299 87.9598C82.4299 85.7598 78.3299 76.1598 70.1299 75.0598C69.4299 74.9598 68.7299 74.9598 68.0299 75.2598C66.7299 75.7598 66.2299 77.2598 65.9299 78.5598C65.0299 82.0598 64.2299 85.9598 66.3299 88.9598C68.2299 91.6598 72.0299 92.7598 73.8299 95.4598C75.6299 98.1598 75.0299 101.76 73.9299 104.76C72.8299 107.76 71.2299 110.86 71.4299 114.06C71.6299 118.66 75.4299 122.66 79.8299 124.56C84.3299 126.56 89.3299 126.86 94.3299 126.86C95.6299 126.86 96.9299 126.86 98.1299 127.26C102.03 128.56 102.93 133.86 100.43 136.96C99.4299 138.16 98.1299 139.16 97.4299 140.46C95.5299 143.96 98.9299 148.26 102.93 149.46C106.93 150.56 111.23 149.66 115.43 149.16C119.63 148.66 124.33 148.76 127.43 151.36C131.33 154.76 130.93 160.56 133.23 165.16C135.63 170.06 141.13 173.06 146.73 174.36C152.33 175.66 158.13 175.46 163.93 175.76C176.03 176.36 188.13 178.96 198.53 184.76" fill="#4DC591"/>
<path opacity="0.2" d="M94.8748 143.946C98.0748 154.846 107.975 164.046 116.875 171.246C126.275 178.846 136.775 185.146 147.375 191.146C169.575 203.746 192.775 215.446 209.975 234.046C210.475 234.546 211.275 233.846 210.775 233.346C195.675 215.646 174.175 204.346 153.575 193.046C143.175 187.246 132.675 181.446 123.075 174.446C112.275 166.646 99.2748 156.446 95.2748 143.846C95.1748 143.646 94.7748 143.746 94.8748 143.946Z" fill="#444472"/>
<path d="M145.847 211.902C143.747 215.502 140.247 218.002 136.847 220.402C129.447 225.502 121.647 230.202 113.047 232.702C110.847 233.402 108.547 233.902 106.247 233.702C103.947 233.502 101.647 232.602 100.247 230.702C98.3469 228.202 98.5469 224.702 98.1469 221.502C98.0469 220.502 97.7469 219.502 97.0469 218.802C95.3469 217.202 92.7469 218.702 90.9469 220.102C89.4469 221.302 87.9469 222.502 86.5469 223.702C84.7469 225.202 82.3469 226.702 80.1469 225.802C78.3469 225.002 77.5469 222.702 78.0469 220.802C78.5469 218.902 80.0469 217.402 81.6469 216.202C83.2469 215.102 85.1469 214.202 86.7469 213.002C87.1469 212.702 87.5469 212.402 87.6469 212.002C88.0469 210.902 86.8469 209.902 85.8469 209.502C83.4469 208.602 80.7469 208.602 78.4469 209.702C76.1469 210.702 74.4469 212.602 72.4469 214.102C70.4469 215.602 68.0469 216.902 65.6469 216.402C63.3469 215.902 61.4469 214.002 60.2469 211.902C58.4469 208.902 60.2469 202.702 65.4469 202.602C68.3469 202.502 71.2469 202.602 74.1469 202.602C76.0469 202.602 78.4469 202.102 78.7469 200.202C78.9469 198.702 77.3469 197.602 75.9469 197.002C70.4469 194.702 64.1469 195.602 58.2469 194.802C49.1469 193.602 52.5469 178.902 63.3469 179.102C66.1469 179.102 68.9469 179.902 71.4469 181.202C74.3469 182.702 76.8469 185.102 80.0469 185.902C81.1469 186.202 82.4469 186.302 83.5469 185.902C84.6469 185.402 85.4469 184.202 85.1469 183.002C84.8469 181.802 83.6469 181.202 82.6469 180.502C79.8469 178.402 78.6469 174.502 78.9469 171.002C79.1469 168.902 79.8469 166.702 81.6469 165.802C83.8469 164.602 86.6469 165.802 88.2469 167.702C89.9469 169.502 90.7469 171.902 92.0469 174.002C93.3469 176.102 95.3469 178.102 97.8469 178.202C98.2469 178.202 98.6469 178.202 99.0469 177.902C99.3469 177.702 99.4469 177.402 99.6469 177.102C100.547 174.902 99.7469 172.402 99.4469 170.002C99.1469 167.602 99.9469 164.702 102.247 164.102C104.147 163.602 106.047 165.002 106.947 166.802C107.847 168.502 108.147 170.502 108.947 172.302C111.147 177.802 117.947 180.902 123.547 179.102C125.147 178.602 126.647 177.702 128.247 177.402C130.947 176.902 133.847 178.002 136.047 179.702C138.247 181.502 139.847 183.802 141.347 186.202C145.147 192.302 148.547 199.702 146.047 206.502" fill="#4DC591"/>
<g opacity="0.41">
<path opacity="0.41" d="M74.947 197.745C75.247 197.645 75.547 197.645 75.847 197.545C75.547 197.645 75.247 197.645 74.947 197.745C74.947 197.745 74.947 197.645 74.947 197.745Z" fill="#444472"/>
<path opacity="0.41" d="M78.6469 196.745C77.7469 197.045 76.8469 197.345 75.8469 197.545C76.8469 197.445 77.7469 197.145 78.6469 196.745Z" fill="#444472"/>
</g>
<path d="M179.047 223.913C179.928 218.25 184.101 213.898 186.392 208.705C206.459 163.321 220.611 197.789 222.441 170.001C223.963 147.308 254.358 141.272 255.224 151.353C255.835 159.327 264.295 165.068 269.719 159.282C276.596 151.966 276.272 139.896 282.58 132.009C286.237 127.505 292.114 124.869 297.708 125.188C302.803 125.496 307.749 128.102 312.865 127.41C321.973 126.163 328.267 115.214 337.405 115.388C338.186 115.364 338.984 115.481 339.613 115.975C340.934 116.883 341.234 118.77 341.298 120.472C341.607 124.779 341.782 129.744 338.832 133.022C336.268 135.968 331.933 136.637 329.449 139.645C326.886 142.591 326.931 147.073 327.469 150.925C328.086 154.839 329.203 158.764 328.461 162.629C327.345 168.106 322.514 172.325 317.22 173.893C312.004 175.523 306.375 174.923 301.072 174.07C299.696 173.881 298.241 173.63 296.775 173.879C292.255 174.783 290.241 181.082 292.313 185.247C293.079 186.864 294.389 188.272 294.892 190.063C296.234 194.672 291.735 199.278 287.181 199.901C282.565 200.604 278.126 198.649 273.693 197.335C269.259 196.02 264.175 195.212 260.298 197.891C255.365 201.267 254.672 208.474 251.364 213.505C247.827 218.991 241.248 221.712 234.896 222.197C228.623 222.744 222.286 221.59 216.001 220.856C202.963 219.659 191.459 218.775 179.047 223.913Z" fill="#4DC591"/>
<path d="M165.005 220.853C174.489 210.732 184.073 200.611 191.471 188.872C203.327 170.069 209.014 147.515 207.698 125.304C207.518 122.902 206.643 119.795 204.243 119.775C203.143 119.766 202.239 120.358 201.433 121.052C199.319 122.734 197.403 124.618 195.786 126.705C194.673 128.196 193.259 129.884 191.461 129.669C190.162 129.559 189.271 128.451 188.68 127.346C185.724 122.022 187.48 115.236 190.723 110.163C193.965 105.089 198.599 100.928 201.842 95.7542C205.085 90.5809 206.742 83.7944 203.685 78.5689C202.896 77.2623 201.706 76.0524 200.206 76.04C199.506 76.0342 198.903 76.3292 198.301 76.6242C191.674 79.8695 189.207 87.9493 186.051 94.6234C185.745 95.3209 185.239 96.1167 184.536 96.4109C183.433 96.8018 182.341 95.8927 181.648 94.9869C178.091 89.7573 181.248 82.8832 183.896 77.1049C187.461 69.3342 190.134 60.456 187.702 52.2356C187.117 50.4307 186.232 48.6233 184.641 47.6101C180.859 45.3787 176.026 49.3388 175.19 53.632C174.355 57.9252 175.718 62.3367 175.782 66.7374C175.773 67.8373 175.664 68.9364 174.857 69.7298C173.547 70.919 171.254 70.1 170.366 68.5926C169.479 67.0852 169.594 65.186 169.809 63.3878C171.025 49.3974 171.753 34.0029 163.044 22.9303C162.153 21.8229 161.163 20.7147 159.766 20.3031C157.072 19.5808 154.454 21.6591 153.135 24.0483C149.583 30.3191 151.217 38.2329 154.062 44.8567C156.908 51.4805 160.956 57.7142 162.298 64.7256C162.777 67.2296 162.855 69.9304 161.836 72.222C160.817 74.5137 158.401 76.3937 155.903 76.173C152.606 75.8457 150.533 72.5284 149.158 69.5169C147.978 67.107 146.798 64.6972 145.617 62.3873C144.928 60.9816 143.942 59.3733 142.342 59.3601C140.343 59.2435 139.321 61.8352 139.304 63.9351C139.255 69.8349 142.509 75.362 146.674 79.5967C150.739 83.8305 155.712 87.1718 160.28 91.0098C161.472 92.0197 162.663 93.1296 163.351 94.5353C164.236 96.3427 164.118 98.5418 163.701 100.538C162.669 104.43 160.141 107.809 156.625 109.78C154.012 111.259 151.007 111.934 148.691 113.815C144.765 116.882 143.715 122.974 146.48 127.197C148.849 130.916 153.336 132.554 157.63 133.289C161.924 134.025 166.425 133.962 170.614 135.297C172.509 135.913 174.402 136.728 175.489 138.337C177.07 140.651 176.644 143.747 175.523 146.238C173.792 150.024 170.665 153.198 166.852 154.766C163.34 156.237 159.438 156.505 155.828 157.675C152.219 158.745 148.499 161.115 147.568 164.807C146.224 170.196 151.385 174.939 156.364 177.48C161.344 179.922 167.227 181.97 169.585 186.99C171.257 190.404 170.723 194.5 169.993 198.194C168.426 206.281 165.861 214.06 162.399 221.532" fill="#4DC591"/>
<path d="M253.602 128.6C257.902 125.3 261.602 121 264.102 116C266.602 110.9 267.602 105.1 268.402 99.3C269.202 92.9 269.802 86.5 270.002 80C260.402 81.4 250.902 83.3 241.902 87C232.902 90.7 224.202 96 218.102 104C207.602 117.8 208.002 136 208.002 136C208.002 136 230.302 146.2 253.602 128.6Z" fill="#4DC591"/>
<g opacity="0.41">
<path opacity="0.41" d="M231.775 151.446C231.675 151.846 231.575 152.146 231.475 152.546C231.575 152.146 231.675 151.846 231.675 151.446C231.675 151.346 231.775 151.446 231.775 151.446Z" fill="#444472"/>
<path opacity="0.41" d="M230.275 155.946C230.675 154.846 231.075 153.746 231.475 152.546C231.175 153.746 230.775 154.846 230.275 155.946Z" fill="#444472"/>
<path opacity="0.47" d="M207.775 205.546C216.175 216.846 224.975 228.346 237.775 234.146C235.475 226.046 233.375 217.846 231.675 209.546C222.875 201.446 216.175 191.446 209.575 181.446C209.475 181.346 209.675 181.246 209.675 181.346C216.375 190.646 223.175 199.746 231.275 207.746C228.775 195.146 227.075 182.346 226.475 169.446C226.375 169.446 226.275 169.446 226.275 169.346C223.375 163.846 221.375 157.946 220.575 151.746C220.575 151.646 220.675 151.646 220.675 151.746C221.675 157.746 223.575 163.346 226.475 168.646C226.375 166.546 226.375 164.346 226.275 162.246C226.175 162.146 226.075 162.046 226.175 161.846L226.275 161.746C226.275 158.146 226.275 154.546 226.475 150.846C226.475 150.746 226.575 150.846 226.575 150.846C226.475 154.346 226.475 157.946 226.575 161.446C227.975 159.946 229.375 158.046 230.275 156.046C229.375 158.246 228.275 160.246 226.575 162.046C226.875 173.446 228.175 184.846 230.075 196.046C240.375 189.246 243.675 176.646 249.375 166.146C249.375 166.046 249.475 166.146 249.475 166.146C243.875 176.846 240.875 189.946 230.475 196.746C230.375 196.846 230.275 196.846 230.175 196.846C230.875 200.946 231.675 204.946 232.575 209.046C232.775 209.246 232.775 209.446 232.675 209.646C233.475 213.146 234.275 216.546 235.175 219.946C245.175 212.346 253.475 202.946 259.275 191.346C259.275 191.246 259.375 191.346 259.375 191.346C253.975 203.246 245.975 213.446 235.375 220.546C237.175 227.646 239.175 234.646 241.375 241.646C252.275 234.946 262.675 226.746 265.975 213.246C265.975 213.146 266.075 213.246 266.075 213.246C262.975 226.946 252.575 235.446 241.675 242.446C242.375 244.646 243.075 246.746 243.775 248.946C244.075 249.846 242.775 250.346 242.475 249.446C240.875 244.646 239.475 239.846 238.075 235.046C224.575 229.446 215.975 217.646 207.675 205.646C207.575 205.546 207.675 205.446 207.775 205.546Z" fill="#444472"/>
</g>
<path d="M213.272 91.6226L145.304 240.541L148.124 241.828L216.092 92.9097L213.272 91.6226Z" fill="#00664F"/>
<path d="M144.775 245.346C142.475 244.346 141.475 241.546 142.475 239.246C143.475 236.946 146.275 235.946 148.575 236.946C187.375 254.646 233.275 237.546 250.975 198.746C268.675 159.946 251.575 114.046 212.775 96.3463C210.475 95.3463 209.475 92.5463 210.475 90.2463C211.475 87.9463 214.275 86.9463 216.575 87.9463C259.875 107.746 279.075 159.046 259.275 202.446C239.475 246.046 188.175 265.146 144.775 245.346Z" fill="#00664F"/>
<path d="M180.675 239.146C220.66 239.146 253.075 206.732 253.075 166.746C253.075 126.761 220.66 94.3463 180.675 94.3463C140.689 94.3463 108.275 126.761 108.275 166.746C108.275 206.732 140.689 239.146 180.675 239.146Z" fill="#B0DDC9"/>
<path d="M246.575 196.846C244.075 202.346 240.975 207.346 237.375 211.946C228.775 215.546 219.175 216.746 209.975 215.146C208.775 214.946 207.575 214.646 206.675 213.846C203.975 211.446 206.275 207.146 206.275 203.546C206.275 200.546 204.475 197.846 202.775 195.346C198.975 189.746 195.175 182.846 197.475 176.346C199.775 169.846 207.475 166.346 209.475 159.746C211.275 153.446 207.175 146.946 207.075 140.346C206.975 135.246 209.475 130.346 212.975 126.746C216.575 123.146 221.175 120.746 225.975 119.046C228.475 118.146 231.275 117.546 233.975 117.546C253.075 138.446 259.075 169.546 246.575 196.846ZM158.675 234.346C162.375 232.546 165.475 229.146 166.175 225.146C166.875 220.746 164.675 216.446 161.975 212.946C159.175 209.446 155.875 206.446 153.575 202.646C152.575 201.046 151.875 199.246 151.875 197.346C151.975 192.146 157.575 188.546 158.175 183.446C158.775 178.946 155.175 174.846 151.175 172.846C147.075 170.846 142.475 170.346 138.075 169.146C133.675 167.946 129.275 165.546 127.475 161.346C125.275 156.046 128.075 149.746 125.075 144.746C123.175 141.546 118.175 139.446 113.875 138.746C98.7749 174.646 114.875 216.346 150.575 232.646C152.675 233.546 154.675 234.446 156.775 235.146C157.475 234.946 158.075 234.646 158.675 234.346ZM138.575 107.846C138.775 108.646 139.075 109.446 139.475 110.146C142.975 117.546 150.475 123.146 151.575 131.246C151.875 133.446 151.775 135.946 153.175 137.646C153.875 138.546 154.975 139.046 156.075 139.546C165.175 143.346 176.575 140.646 182.875 133.046C188.975 125.646 190.075 115.346 194.875 107.046C196.275 104.646 197.975 102.346 197.975 99.5463C197.975 98.3463 197.575 97.2463 196.975 96.2463C176.375 91.4463 155.175 95.9463 138.575 107.846Z" fill="#2EA889"/>
<path d="M187.775 251.446H173.575V285.246H187.775V251.446Z" fill="#00664F"/>
<path d="M236.775 297.346H124.575C120.875 297.346 117.975 294.346 117.975 290.746C117.975 287.046 120.975 284.146 124.575 284.146H236.675C240.375 284.146 243.275 287.146 243.275 290.746C243.375 294.346 240.375 297.346 236.775 297.346Z" fill="#00664F"/>
<path d="M390.575 225.946C397.675 225.946 403.475 220.146 403.475 213.046C403.475 205.946 397.675 200.146 390.575 200.146H239.575C244.575 208.746 244.575 217.346 239.575 225.946H390.575Z" fill="#EDEDED"/>
<path d="M390.575 225.946C397.875 225.946 403.775 219.846 403.475 212.446C403.175 205.546 397.175 200.246 390.275 200.246H237.575C236.475 200.246 235.575 199.346 235.575 198.246C235.575 197.146 236.475 196.246 237.575 196.246H390.575C399.875 196.246 407.375 203.746 407.375 213.046C407.375 222.346 399.875 229.846 390.575 229.846H237.575C236.475 229.846 235.575 228.946 235.575 227.846C235.575 226.746 236.475 225.846 237.575 225.846H390.575V225.946Z" fill="#FFC278"/>
<path d="M398.075 202.646L385.875 202.746L362.975 202.946L317.075 203.046L271.175 202.946L248.275 202.846L240.875 202.746C240.775 202.646 240.775 202.546 240.675 202.446L248.175 202.346L271.075 202.246L316.975 202.146L362.875 202.246L385.775 202.346L397.575 202.446C397.875 202.446 397.975 202.546 398.075 202.646ZM401.075 205.646C401.075 205.546 400.975 205.546 400.975 205.446L385.975 205.246L363.075 205.146L317.175 205.046L271.275 205.146L248.375 205.246L242.075 205.346C242.075 205.446 242.175 205.546 242.175 205.746L248.375 205.846L271.275 205.946L317.175 206.046L362.975 205.946L385.875 205.846L401.075 205.646ZM402.675 208.646C402.675 208.646 402.675 208.546 402.575 208.546L385.875 208.346L362.975 208.246L317.075 208.146L271.175 208.246L248.275 208.346L242.875 208.446C242.875 208.546 242.875 208.746 242.975 208.846L248.375 208.946L271.275 209.046L317.175 209.146L362.975 208.946L385.875 208.846L402.675 208.646ZM240.675 223.846L248.175 223.946L271.075 224.046L316.975 224.146L362.875 224.046L385.775 223.946L397.575 223.846C397.675 223.746 397.775 223.646 397.875 223.646L385.675 223.546L362.775 223.446L316.875 223.346L270.975 223.446L248.075 223.546L240.675 223.646C240.775 223.546 240.775 223.746 240.675 223.846ZM400.975 220.746C400.975 220.646 401.075 220.646 401.075 220.546L385.975 220.346L363.075 220.246L317.175 220.146L271.275 220.246L248.375 220.346L242.175 220.446C242.175 220.546 242.075 220.646 242.075 220.846L248.375 220.946L271.275 221.046L317.175 221.146L363.075 221.046L385.975 220.946L400.975 220.746ZM402.575 217.646C402.575 217.646 402.575 217.546 402.675 217.546L385.975 217.346L363.075 217.246L317.175 217.146L271.275 217.246L248.375 217.346L242.975 217.446C242.975 217.546 242.975 217.746 242.875 217.846L248.275 217.946L271.175 218.046L317.075 218.146L362.975 218.046L385.875 217.946L402.575 217.646ZM403.375 214.646V214.546L385.875 214.346L362.975 214.246L317.075 214.146L271.175 214.246L248.275 214.346L243.275 214.446C243.275 214.546 243.275 214.746 243.275 214.846L248.275 214.946L271.175 215.046L317.075 215.146L362.975 214.946L385.875 214.846L403.375 214.646ZM403.375 211.646V211.546L385.975 211.346L363.075 211.246L317.175 211.146L271.275 211.246L248.375 211.346L243.375 211.446C243.375 211.546 243.375 211.746 243.375 211.846L248.375 211.946L271.275 212.046L317.175 212.146L362.975 211.946L385.875 211.846L403.375 211.646Z" fill="#E1E3EF"/>
<path d="M255.875 224.846L262.475 221.046L269.075 224.846V208.246H255.875V224.846Z" fill="#FFC278"/>
<path d="M252.475 259.646C245.375 259.646 239.575 253.846 239.575 246.746C239.575 239.646 245.375 233.846 252.475 233.846H403.475C398.475 242.446 398.475 251.046 403.475 259.646H252.475Z" fill="#EDEDED"/>
<path d="M252.475 259.646C245.175 259.646 239.275 253.546 239.575 246.146C239.875 239.246 245.875 233.946 252.775 233.946H405.375C406.475 233.946 407.375 233.046 407.375 231.946C407.375 230.846 406.475 229.946 405.375 229.946H252.375C243.075 229.946 235.575 237.446 235.575 246.746C235.575 256.046 243.075 263.546 252.375 263.546H405.375C406.475 263.546 407.375 262.646 407.375 261.546C407.375 260.446 406.475 259.546 405.375 259.546H252.475V259.646Z" fill="#FF7648"/>
<path d="M245.275 236.046L257.075 235.946L279.975 235.846L325.875 235.746L371.775 235.846L394.675 235.946L402.175 236.046C402.075 236.146 402.075 236.246 401.975 236.346L394.575 236.446L371.675 236.546L325.775 236.646L279.875 236.546L256.975 236.446L244.775 236.346C245.075 236.246 245.175 236.146 245.275 236.046ZM257.075 239.446L279.975 239.546L325.875 239.646L371.775 239.546L394.675 239.446L400.875 239.346C400.875 239.246 400.975 239.146 400.975 238.946L394.675 238.846L371.775 238.746L325.875 238.646L279.975 238.746L257.075 238.846L242.075 239.046C242.075 239.146 241.975 239.146 241.975 239.246L257.075 239.446ZM257.075 242.446L279.975 242.546L325.875 242.646L371.775 242.546L394.675 242.446L400.075 242.346C400.075 242.246 400.075 242.046 400.175 241.946L394.775 241.846L371.875 241.746L325.975 241.646L280.075 241.746L257.175 241.846L240.475 242.046C240.475 242.046 240.475 242.146 240.375 242.146L257.075 242.446ZM402.175 257.146L394.775 257.046L371.875 256.946L325.975 256.846L280.075 256.946L257.175 257.046L244.975 257.146C245.075 257.246 245.175 257.346 245.275 257.346L257.075 257.446L279.975 257.546L325.875 257.646L371.775 257.546L394.675 257.446L402.175 257.346C402.275 257.446 402.275 257.246 402.175 257.146ZM257.075 254.546L279.975 254.646L325.875 254.746L371.775 254.646L394.675 254.546L400.975 254.446C400.975 254.346 400.875 254.246 400.875 254.046L394.675 253.946L371.775 253.846L325.875 253.746L279.975 253.846L257.075 253.946L241.975 254.146C241.975 254.246 242.075 254.246 242.075 254.346L257.075 254.546ZM257.075 251.546L279.975 251.646L325.875 251.746L371.775 251.646L394.675 251.546L400.075 251.446C400.075 251.346 400.075 251.146 399.975 251.046L394.575 250.946L371.675 250.846L325.775 250.746L279.875 250.846L256.975 250.946L240.275 251.146C240.275 251.146 240.275 251.246 240.375 251.246L257.075 251.546ZM257.075 248.546L279.975 248.646L325.875 248.746L371.775 248.646L394.675 248.546L399.675 248.446C399.675 248.346 399.675 248.146 399.675 248.046L394.675 247.946L371.775 247.846L325.875 247.746L279.975 247.846L257.075 247.946L239.575 248.146V248.246L257.075 248.546ZM257.075 245.546L279.975 245.646L325.875 245.746L371.775 245.646L394.675 245.546L399.675 245.446C399.675 245.346 399.675 245.146 399.675 245.046L394.675 244.946L371.775 244.846L325.875 244.746L279.975 244.846L257.075 244.946L239.675 245.146V245.246L257.075 245.546Z" fill="#E1E3EF"/>
<path d="M390.575 293.346C397.675 293.346 403.475 287.546 403.475 280.446C403.475 273.346 397.675 267.546 390.575 267.546H239.575C244.575 276.146 244.575 284.746 239.575 293.346H390.575V293.346Z" fill="#EDEDED"/>
<path d="M390.575 293.346C397.875 293.346 403.775 287.246 403.475 279.846C403.175 272.946 397.175 267.646 390.275 267.646H237.675C236.575 267.646 235.675 266.746 235.675 265.646C235.675 264.546 236.575 263.646 237.675 263.646H390.675C399.975 263.646 407.475 271.146 407.475 280.446C407.475 289.746 399.975 297.246 390.675 297.246H237.675C236.575 297.246 235.675 296.346 235.675 295.246C235.675 294.146 236.575 293.246 237.675 293.246H390.575V293.346Z" fill="#8F98FF"/>
<path d="M398.075 270.046L385.875 270.146L362.975 270.246L317.075 270.346L271.175 270.246L248.275 270.146L240.875 270.046C240.775 269.946 240.775 269.846 240.675 269.746L248.175 269.646L271.075 269.546L316.975 269.446L362.875 269.546L385.775 269.646L397.575 269.746C397.875 269.846 397.975 269.946 398.075 270.046ZM401.075 273.046C401.075 272.946 400.975 272.946 400.975 272.846L385.975 272.646L363.075 272.546L317.175 272.446L271.275 272.546L248.375 272.646L242.075 272.746C242.075 272.846 242.175 272.946 242.175 273.146L248.375 273.246L271.275 273.346L317.175 273.446L363.075 273.346L385.975 273.246L401.075 273.046ZM402.675 276.046C402.675 276.046 402.675 275.946 402.575 275.946L385.875 275.746L362.975 275.646L317.075 275.546L271.175 275.646L248.275 275.746L242.875 275.846C242.875 275.946 242.875 276.146 242.975 276.246L248.375 276.346L271.275 276.446L317.175 276.546L363.075 276.446L385.975 276.346L402.675 276.046ZM400.975 288.146C400.975 288.046 401.075 288.046 401.075 287.946L385.975 287.746L363.075 287.646L317.175 287.546L271.275 287.646L248.375 287.746L242.175 287.846C242.175 287.946 242.075 288.046 242.075 288.246L248.375 288.346L271.275 288.446L317.175 288.546L363.075 288.446L385.975 288.346L400.975 288.146ZM402.575 285.046C402.575 285.046 402.575 284.946 402.675 284.946L385.975 284.746L363.075 284.646L317.175 284.546L271.275 284.646L248.375 284.746L242.975 284.846C242.975 284.946 242.975 285.146 242.875 285.246L248.275 285.346L271.175 285.446L317.075 285.546L362.975 285.446L385.875 285.346L402.575 285.046ZM403.375 282.046V281.946L385.875 281.746L362.975 281.646L317.075 281.546L271.175 281.646L248.275 281.746L243.275 281.846C243.275 281.946 243.275 282.146 243.275 282.246L248.275 282.346L271.175 282.446L317.075 282.546L362.975 282.446L385.875 282.346L403.375 282.046ZM403.375 279.046V278.946L385.975 278.746L363.075 278.646L317.175 278.546L271.275 278.646L248.375 278.746L243.375 278.846C243.375 278.946 243.375 279.146 243.375 279.246L248.375 279.346L271.275 279.446L317.175 279.546L363.075 279.446L385.975 279.346L403.375 279.046Z" fill="#E1E3EF"/>
<path d="M292.175 292.246L298.775 288.446L305.275 292.246V275.546H292.175V292.246Z" fill="#8F98FF"/>
<path opacity="0.05" d="M57.1749 298.404C37.6749 298.604 8.57494 287.804 13.4749 263.604C16.7749 247.204 2.97494 231.804 0.474936 215.304C-2.42506 196.304 8.17493 176.104 26.2749 166.204C32.6749 162.704 40.2749 160.204 44.6749 154.604C58.3749 137.604 35.3749 116.404 44.1749 93.6038C49.2749 80.5038 64.1749 73.3038 84.0749 74.5038C104.475 75.8038 124.075 72.0038 126.575 53.5038C128.675 38.6038 128.475 28.1038 144.275 15.3038C170.475 -5.99622 235.975 -8.79622 249.275 31.2038C253.175 42.8038 264.175 68.2038 302.475 46.7038C332.275 29.9038 402.875 49.3038 380.275 97.7038C371.375 116.804 388.875 122.904 415.975 132.804C436.275 140.204 453.275 177.104 411.675 208.804C405.675 213.304 419.675 226.204 425.475 230.904C458.875 257.904 427.475 297.704 396.075 298.404C396.075 298.404 76.6749 298.204 57.1749 298.404ZM103.375 39.5038C92.2749 37.0038 88.7749 48.5038 89.1749 56.8038C89.2749 58.4038 89.3749 60.1038 90.0749 61.5038C91.1749 63.5038 93.3749 64.8038 95.5749 65.4038C99.1749 66.4038 103.175 66.2038 106.875 65.4038C109.275 64.9038 111.675 64.1038 113.375 62.4038C120.175 55.6038 111.675 41.3038 103.375 39.5038ZM292.875 34.6038C292.675 37.5038 290.375 40.0038 287.675 41.2038C284.975 42.5038 281.875 42.8038 278.875 43.0038C274.575 43.3038 269.575 43.3038 266.675 40.2038C264.675 38.1038 264.175 34.9038 264.575 32.1038C265.775 24.9038 270.375 17.8038 278.775 18.7038C285.175 19.5038 293.175 28.5038 292.875 34.6038ZM303.375 17.3038C302.375 18.0038 300.975 18.2038 299.775 17.9038C299.175 17.8038 298.475 17.5038 297.975 17.1038C294.375 14.5038 295.775 9.60378 300.375 10.1038C303.975 10.5038 307.475 14.6038 303.375 17.3038ZM412.175 107.304C413.375 109.004 414.275 111.104 413.575 113.004C413.075 114.404 411.775 115.404 410.475 116.004C407.675 117.304 404.275 117.004 401.375 115.804C398.475 114.704 395.975 112.804 393.575 110.804C392.475 109.904 391.475 109.004 390.875 107.804C390.475 106.904 390.375 105.904 390.375 105.004C390.275 103.304 390.475 101.604 390.975 100.004C391.675 97.9038 392.975 96.0038 394.275 94.3038C396.275 91.7038 399.175 88.6038 402.975 89.2038C405.275 89.6038 405.775 90.9038 405.875 93.0038C405.875 95.3038 405.375 97.5038 406.275 99.8038C407.275 102.804 410.375 104.804 412.175 107.304ZM18.7749 156.504C15.0749 159.604 8.77494 159.104 5.57494 155.404C-5.62506 142.404 4.27494 110.404 25.1749 115.004C32.9749 116.704 38.8749 125.404 35.3749 133.004C33.3749 137.304 28.0749 139.504 25.5749 143.504C22.9749 147.704 22.7749 153.204 18.7749 156.504Z" fill="white"/>
</svg>
